<?xml version="1.0" encoding="UTF-8"?>
<svg width="24px" height="22px" viewBox="0 0 24 22" version="1.1" xmlns="http://www.w3.org/2000/svg" xmlns:xlink="http://www.w3.org/1999/xlink">
    <!-- Generator: Sketch 41.1 (35376) - http://www.bohemiancoding.com/sketch -->
    <title>noun_545621_cc</title>
    <desc>Created with Sketch.</desc>
    <defs></defs>
    <g id="Symbols" stroke="none" stroke-width="1" fill="none" fill-rule="evenodd">
        <g id="Top-Nav" transform="translate(-1286.000000, -17.000000)" fill="#2F3035">
            <g id="Notifications-and-profile">
                <g transform="translate(1226.000000, 12.000000)">
                    <g id="noun_545621_cc" transform="translate(60.000000, 5.000000)">
                        <g id="messages">
                            <path d="M7.73877551,14.8 L7.73877551,16.15 C7.73877551,16.575 8.08163265,16.95 8.52244898,16.95 L18,16.95 L20.0081633,19 L20.0081633,16.95 L21.2816327,16.95 C21.6979592,16.95 22.0653061,16.6 22.0653061,16.15 L22.0653061,8.275 C22.0653061,7.85 21.722449,7.475 21.2816327,7.475 L19.7387755,7.475 L19.7387755,5.65 L21.2816327,5.65 C22.7020408,5.65 23.8285714,6.825 23.8285714,8.25 L23.8285714,16.125 C23.8285714,17.375 22.9469388,18.425 21.7959184,18.675 L21.7959184,21 C21.7959184,21.55 21.355102,21.975 20.8408163,21.975 C20.5959184,21.975 20.3510204,21.875 20.155102,21.7 L17.2653061,18.775 L8.52244898,18.775 C7.15102041,18.775 6.04897959,17.675 5.9755102,16.325 L7.44489796,14.825 L7.73877551,14.825 L7.73877551,14.8 Z M0.171428571,10.475 L0.171428571,2.6 C0.171428571,1.15 1.32244898,0 2.71836735,0 L15.4530612,0 C16.8734694,0 18,1.175 18,2.6 L18,10.475 C18,11.925 16.8489796,13.075 15.4530612,13.075 L6.73469388,13.075 L3.84489796,16.05 C3.67346939,16.225 3.42857143,16.325 3.18367347,16.325 C2.93877551,16.325 2.71836735,16.225 2.52244898,16.05 C2.32653061,15.875 2.22857143,15.6 2.22857143,15.325 L2.22857143,13 C1.05306122,12.775 0.171428571,11.725 0.171428571,10.475 L0.171428571,10.475 Z M3.23265306,4.325 L10.0163265,4.325 L10.0163265,2.75 L3.23265306,2.75 L3.23265306,4.325 L3.23265306,4.325 Z M3.23265306,7.3 L14.9387755,7.3 L14.9387755,5.725 L3.23265306,5.725 L3.23265306,7.3 L3.23265306,7.3 Z M3.23265306,10.275 L14.9387755,10.275 L14.9387755,8.7 L3.23265306,8.7 L3.23265306,10.275 L3.23265306,10.275 Z" id="Shape"></path>
                        </g>
                    </g>
                </g>
            </g>
        </g>
    </g>
</svg>